<svg xmlns="http://www.w3.org/2000/svg" viewBox="0 0 100 100" fill="none" stroke="#2563eb" stroke-width="0.3">
  <path d="M 36.29 2.00 L 71.68 2.33 L 80.19 45.24 L 82.52 50.88 L 84.73 54.09 L 83.84 56.08 L 86.17 57.30 L 82.74 59.84 L 82.85 62.39 L 81.08 65.82 L 83.07 71.90 L 81.63 77.21 L 83.84 82.74 L 31.42 82.85 L 30.76 85.50 L 35.29 89.37 L 34.52 92.69 L 36.06 94.35 L 33.08 97.34 L 30.31 98.00 L 25.23 94.68 L 24.67 89.71 L 23.12 89.15 L 21.24 92.91 L 20.58 96.56 L 15.38 95.57 L 13.83 64.71 L 21.35 4.21 L 19.25 2.11 L 36.29 2.00 Z" fill="#2563eb"/>
</svg>