<svg xmlns="http://www.w3.org/2000/svg" viewBox="0 0 100 100" fill="none" stroke="#2563eb" stroke-width="0.3">
  <path d="M 88.90 66.47 L 91.73 67.91 L 92.85 70.62 L 89.26 69.33 L 90.14 68.80 L 88.90 66.47 Z M 82.14 61.79 L 85.09 62.09 L 85.81 63.57 L 83.12 63.81 L 81.41 62.52 L 82.14 61.79 Z M 53.13 31.45 L 70.24 32.95 L 70.24 56.50 L 75.06 56.36 L 79.20 60.02 L 84.15 57.77 L 93.33 65.83 L 97.71 67.06 L 98.00 69.18 L 96.23 70.58 L 95.63 69.02 L 92.46 68.39 L 91.11 66.80 L 92.17 65.64 L 89.10 64.38 L 88.79 62.84 L 85.18 61.04 L 84.65 59.30 L 85.15 61.80 L 80.63 59.88 L 82.73 61.35 L 81.34 61.78 L 73.40 58.52 L 73.88 57.16 L 71.96 58.03 L 58.09 55.88 L 56.10 56.67 L 57.76 55.81 L 52.15 54.75 L 52.64 57.28 L 42.57 59.15 L 44.71 58.10 L 42.85 57.83 L 44.01 55.45 L 48.21 54.71 L 45.90 54.00 L 37.18 58.86 L 39.23 60.12 L 37.11 61.78 L 26.56 66.14 L 26.10 67.41 L 18.35 68.31 L 17.17 69.69 L 15.64 69.13 L 14.44 70.64 L 10.13 71.34 L 17.79 67.63 L 21.64 67.95 L 21.38 66.72 L 25.77 65.31 L 29.72 60.53 L 25.83 60.01 L 25.14 61.33 L 21.55 59.61 L 17.93 60.92 L 18.06 58.56 L 16.72 57.04 L 11.86 57.61 L 9.07 55.81 L 9.44 54.56 L 6.96 53.51 L 11.19 49.17 L 14.69 49.56 L 20.42 47.60 L 18.88 45.84 L 20.33 45.65 L 19.46 44.86 L 15.32 46.37 L 9.74 46.09 L 6.24 45.58 L 5.92 43.82 L 2.00 43.21 L 11.25 40.68 L 12.89 40.75 L 12.85 41.99 L 19.50 41.30 L 15.79 39.88 L 18.39 41.04 L 18.03 39.62 L 12.92 39.30 L 5.51 36.25 L 6.68 34.88 L 12.33 34.62 L 17.68 31.28 L 31.00 28.66 L 33.67 29.33 L 32.50 30.02 L 34.87 29.17 L 53.13 31.45 Z M 37.58 63.47 L 39.40 62.31 L 42.13 63.27 L 37.44 65.48 L 35.60 64.14 L 37.58 63.47 Z" fill="#2563eb"/>
</svg>