<svg xmlns="http://www.w3.org/2000/svg" viewBox="0 0 100 100" fill="none" stroke="#2563eb" stroke-width="0.3">
  <path d="M 4.80 15.61 L 89.71 15.72 L 91.43 19.49 L 85.30 25.52 L 98.00 25.52 L 97.35 29.17 L 94.45 30.25 L 93.80 33.26 L 90.14 36.49 L 90.47 41.23 L 88.53 44.67 L 86.59 45.21 L 87.78 46.93 L 84.65 48.44 L 83.26 51.78 L 81.21 52.64 L 81.53 56.51 L 77.98 57.59 L 78.09 58.88 L 74.00 62.11 L 75.18 64.26 L 71.63 67.38 L 68.51 73.41 L 71.96 75.99 L 70.23 77.61 L 71.31 81.70 L 69.80 84.39 L 13.30 84.06 L 13.30 73.62 L 10.50 72.76 L 6.63 73.73 L 4.58 71.90 L 5.66 37.35 L 2.00 15.61 L 4.80 15.61 Z" fill="#2563eb"/>
</svg>