<svg xmlns="http://www.w3.org/2000/svg" viewBox="0 0 100 100" fill="none" stroke="#2563eb" stroke-width="0.3">
  <path d="M 13.00 5.76 L 43.19 5.86 L 43.19 33.86 L 66.58 50.49 L 93.34 71.21 L 93.34 72.39 L 96.16 76.38 L 98.00 77.71 L 94.26 81.19 L 94.37 84.77 L 92.47 86.10 L 93.09 89.58 L 94.37 89.63 L 94.88 91.37 L 94.37 92.19 L 70.06 94.24 L 68.93 93.01 L 68.17 88.76 L 66.84 87.13 L 60.18 82.78 L 58.03 82.98 L 58.24 82.06 L 56.60 80.17 L 54.40 80.58 L 50.51 79.19 L 49.95 78.07 L 47.34 76.69 L 38.79 76.38 L 37.16 75.15 L 37.31 70.29 L 34.85 68.91 L 34.75 67.01 L 31.22 64.92 L 25.49 58.93 L 25.13 55.91 L 25.85 56.17 L 26.51 54.38 L 25.18 52.74 L 23.54 52.94 L 20.63 50.28 L 19.71 45.22 L 21.45 45.22 L 20.73 41.79 L 19.96 42.14 L 19.81 43.83 L 17.97 44.19 L 15.77 42.91 L 15.41 40.71 L 13.97 38.97 L 8.29 34.26 L 8.75 33.55 L 7.48 30.43 L 8.04 28.69 L 7.22 26.08 L 2.46 22.09 L 2.00 20.40 L 4.35 16.30 L 5.22 11.03 L 4.46 8.47 L 3.43 7.86 L 3.84 5.81 L 13.00 5.76 Z" fill="#2563eb"/>
</svg>