<svg xmlns="http://www.w3.org/2000/svg" viewBox="0 0 100 100" fill="none" stroke="#2563eb" stroke-width="0.3">
  <path d="M 28.97 12.93 L 35.20 12.86 L 36.93 16.52 L 70.40 18.32 L 71.03 21.02 L 72.55 20.95 L 73.10 18.39 L 72.62 16.04 L 73.79 15.07 L 80.16 16.59 L 82.51 28.21 L 86.17 36.31 L 91.78 44.95 L 90.95 45.57 L 91.22 49.59 L 98.00 65.98 L 96.55 79.33 L 95.37 79.53 L 94.13 82.78 L 94.54 83.82 L 92.12 86.17 L 91.15 85.62 L 84.79 87.14 L 83.61 85.83 L 84.17 83.89 L 81.33 78.29 L 79.12 77.25 L 77.18 78.01 L 75.24 72.34 L 72.62 69.50 L 71.99 67.64 L 72.41 64.94 L 70.96 64.46 L 71.30 66.05 L 69.99 66.46 L 64.39 57.88 L 68.19 52.84 L 65.70 53.11 L 64.04 54.70 L 62.38 52.21 L 64.59 45.30 L 65.01 39.56 L 63.49 38.17 L 63.00 36.31 L 60.58 35.89 L 57.75 32.85 L 55.46 31.60 L 55.33 29.73 L 53.73 29.04 L 52.42 26.97 L 47.58 24.20 L 43.36 24.82 L 43.57 26.76 L 42.18 26.41 L 36.93 28.77 L 31.33 29.32 L 31.46 27.94 L 30.15 26.28 L 23.58 22.54 L 18.88 20.95 L 14.66 20.54 L 3.45 21.99 L 5.32 20.12 L 4.35 19.08 L 4.84 17.01 L 2.00 14.59 L 2.41 12.93 L 28.97 12.93 Z" fill="#2563eb"/>
</svg>