<svg xmlns="http://www.w3.org/2000/svg" viewBox="0 0 100 100" fill="none" stroke="#2563eb" stroke-width="0.3">
  <path d="M 52.78 2.78 L 48.44 7.12 L 48.11 9.24 L 54.90 13.58 L 57.02 13.25 L 64.03 24.27 L 68.71 26.84 L 71.38 30.62 L 76.84 34.07 L 76.62 36.41 L 80.18 40.20 L 85.64 43.32 L 86.97 46.66 L 87.20 51.00 L 89.98 52.45 L 93.21 57.91 L 93.32 61.36 L 98.00 63.14 L 92.99 70.05 L 92.10 73.61 L 89.98 76.73 L 89.76 79.96 L 87.53 81.41 L 86.64 90.09 L 81.07 89.31 L 76.39 87.64 L 74.50 89.20 L 75.28 92.99 L 74.39 97.11 L 71.94 97.22 L 70.94 92.88 L 17.03 89.98 L 12.02 78.51 L 13.47 73.16 L 11.47 67.04 L 13.25 63.59 L 13.14 61.03 L 16.59 58.46 L 14.25 57.24 L 15.14 55.23 L 12.91 52.00 L 10.58 46.32 L 2.00 3.11 L 52.78 2.78 Z" fill="#2563eb"/>
</svg>