<svg xmlns="http://www.w3.org/2000/svg" viewBox="0 0 100 100" fill="none" stroke="#2563eb" stroke-width="0.3">
  <path d="M 81.98 81.77 L 77.21 80.07 L 76.47 78.38 L 77.10 74.03 L 73.71 66.60 L 76.36 64.16 L 78.27 60.77 L 76.89 58.54 L 77.31 56.21 L 88.77 60.98 L 92.48 63.95 L 92.48 66.50 L 98.00 70.63 L 94.61 74.03 L 88.56 75.62 L 84.32 78.16 L 81.98 81.77 Z M 63.52 41.46 L 65.75 44.11 L 68.62 42.95 L 74.88 46.02 L 73.92 48.78 L 67.56 50.16 L 66.28 49.63 L 65.96 46.23 L 62.68 45.49 L 61.40 43.58 L 63.52 41.46 Z M 37.11 28.52 L 39.23 33.08 L 38.17 35.73 L 34.04 36.16 L 31.28 30.75 L 33.72 30.64 L 37.11 28.52 Z M 7.73 18.23 L 9.96 18.44 L 11.02 20.46 L 10.38 23.32 L 8.15 25.12 L 2.00 22.90 L 2.74 19.71 L 7.73 18.23 Z" fill="#2563eb"/>
</svg>