<svg xmlns="http://www.w3.org/2000/svg" viewBox="0 0 100 100" fill="none" stroke="#2563eb" stroke-width="0.3">
  <path d="M 23.90 2.00 L 23.90 16.05 L 28.33 19.88 L 28.40 23.63 L 31.03 25.29 L 33.81 25.89 L 34.11 26.86 L 39.22 30.54 L 39.82 32.05 L 43.43 33.47 L 43.58 34.38 L 47.56 34.30 L 45.61 39.41 L 45.23 42.64 L 46.66 44.74 L 44.18 46.24 L 45.15 47.67 L 44.48 49.17 L 47.41 50.60 L 52.14 47.22 L 54.62 48.57 L 54.24 49.70 L 55.60 52.33 L 59.50 56.08 L 59.43 58.71 L 61.00 59.84 L 63.86 59.99 L 65.66 64.42 L 67.24 65.17 L 68.67 63.90 L 72.95 63.97 L 76.10 62.77 L 77.98 63.45 L 81.21 62.85 L 81.89 63.60 L 84.67 63.07 L 87.82 60.22 L 92.48 64.05 L 92.48 98.00 L 10.45 98.00 L 10.45 72.91 L 12.25 68.40 L 11.13 67.28 L 8.50 67.05 L 7.52 65.17 L 10.30 60.29 L 11.73 59.84 L 13.15 57.81 L 12.93 56.54 L 18.19 48.42 L 17.06 46.54 L 13.83 45.57 L 11.95 43.24 L 11.88 40.84 L 10.08 38.43 L 10.38 2.00 L 23.90 2.00 Z" fill="#2563eb"/>
</svg>