<svg xmlns="http://www.w3.org/2000/svg" viewBox="0 0 100 100" fill="none" stroke="#2563eb" stroke-width="0.3">
  <path d="M 30.21 2.00 L 79.49 2.29 L 78.92 5.62 L 81.59 9.52 L 84.35 15.89 L 84.25 56.90 L 82.35 60.04 L 84.54 63.75 L 84.82 66.79 L 78.92 75.26 L 76.93 75.55 L 77.40 77.73 L 76.07 78.59 L 75.02 82.68 L 75.59 83.82 L 73.31 86.30 L 74.93 89.34 L 67.79 90.96 L 67.13 92.77 L 68.74 95.05 L 66.56 96.48 L 60.18 93.81 L 58.18 94.00 L 55.52 97.05 L 56.37 98.00 L 53.62 97.81 L 49.71 92.86 L 51.14 91.72 L 49.71 88.39 L 49.71 85.73 L 44.10 82.02 L 42.20 82.40 L 40.30 80.11 L 35.16 76.59 L 35.25 73.83 L 38.20 69.36 L 37.73 67.74 L 39.44 65.65 L 33.16 63.65 L 31.16 65.27 L 29.83 64.22 L 28.69 58.52 L 17.56 50.33 L 15.37 45.00 L 15.18 41.48 L 16.70 39.01 L 16.99 35.87 L 21.84 33.97 L 22.31 31.30 L 24.60 29.59 L 24.88 26.55 L 22.03 24.07 L 23.17 21.03 L 29.92 20.17 L 35.35 17.98 L 35.92 15.32 L 38.20 14.18 L 38.87 10.85 L 38.39 8.66 L 34.49 6.95 L 34.02 5.14 L 30.21 2.00 Z" fill="#2563eb"/>
</svg>