<svg xmlns="http://www.w3.org/2000/svg" viewBox="0 0 100 100" fill="none" stroke="#2563eb" stroke-width="0.3">
  <path d="M 60.73 2.00 L 89.33 2.00 L 89.06 66.22 L 87.21 67.28 L 89.19 73.90 L 84.96 74.03 L 80.46 76.28 L 74.23 75.22 L 74.50 79.99 L 70.39 81.98 L 68.80 85.02 L 64.57 86.22 L 62.31 92.31 L 59.53 93.90 L 54.10 91.64 L 53.18 88.86 L 47.88 91.91 L 48.28 94.56 L 42.85 95.48 L 41.26 93.10 L 35.17 95.48 L 33.18 98.00 L 27.09 94.42 L 23.91 95.22 L 21.80 93.50 L 19.81 95.22 L 13.72 95.48 L 11.47 97.74 L 10.67 96.15 L 12.13 90.45 L 13.98 89.26 L 13.32 86.22 L 16.10 85.82 L 20.47 80.65 L 21.27 77.48 L 24.31 74.03 L 23.91 69.80 L 20.87 64.63 L 23.52 60.26 L 23.65 3.19 L 26.03 4.78 L 33.45 4.78 L 40.60 2.00 L 60.73 2.00 Z" fill="#2563eb"/>
</svg>