<svg xmlns="http://www.w3.org/2000/svg" viewBox="0 0 100 100" fill="none" stroke="#2563eb" stroke-width="0.3">
  <path d="M 79.85 26.91 L 82.12 26.91 L 82.28 29.10 L 84.47 30.56 L 82.69 32.34 L 84.31 38.01 L 89.57 39.71 L 90.63 41.57 L 93.87 44.25 L 94.27 45.79 L 97.59 47.25 L 98.00 49.11 L 97.43 51.94 L 95.49 52.92 L 95.00 55.18 L 90.38 57.05 L 84.63 57.78 L 83.66 60.37 L 86.09 62.48 L 85.85 65.07 L 83.90 66.53 L 83.50 68.79 L 79.37 70.42 L 79.12 73.09 L 77.50 72.60 L 74.51 69.61 L 14.80 70.01 L 13.10 68.07 L 13.91 64.26 L 12.45 60.94 L 12.53 57.21 L 9.94 55.91 L 9.53 53.89 L 10.43 52.11 L 9.45 49.51 L 7.43 48.54 L 4.75 41.90 L 2.00 38.66 L 3.30 36.47 L 3.78 33.55 L 4.92 32.50 L 3.05 31.04 L 3.54 28.45 L 2.73 27.24 L 4.67 26.91 L 79.85 26.91 Z" fill="#2563eb"/>
</svg>