<svg xmlns="http://www.w3.org/2000/svg" viewBox="0 0 100 100" fill="none" stroke="#2563eb" stroke-width="0.3">
  <path d="M 73.08 37.51 L 75.98 39.27 L 78.02 38.35 L 82.89 39.34 L 86.14 37.65 L 86.71 39.84 L 88.19 40.19 L 89.95 41.95 L 89.60 45.84 L 91.15 48.31 L 93.84 51.69 L 98.00 53.39 L 93.06 56.85 L 88.33 58.75 L 88.33 59.74 L 86.42 60.59 L 86.28 61.72 L 83.81 62.21 L 82.96 63.62 L 75.84 65.67 L 22.19 65.04 L 19.36 64.47 L 19.58 66.80 L 2.00 66.80 L 2.71 65.18 L 4.61 65.74 L 5.67 60.52 L 5.04 59.81 L 7.01 57.55 L 8.49 57.41 L 13.22 59.39 L 14.85 58.33 L 13.65 56.64 L 14.14 55.29 L 19.44 54.09 L 18.24 51.84 L 21.13 48.80 L 24.38 48.66 L 25.44 47.74 L 26.56 48.66 L 28.26 48.24 L 31.51 50.14 L 32.56 48.80 L 35.81 47.53 L 36.66 48.80 L 39.55 48.31 L 39.34 46.89 L 42.16 45.27 L 42.66 46.75 L 45.55 47.95 L 47.04 47.11 L 48.24 43.86 L 50.49 43.22 L 51.34 41.60 L 53.53 40.54 L 53.39 38.00 L 56.71 38.56 L 59.11 37.36 L 61.36 37.29 L 60.31 33.76 L 61.29 33.20 L 66.24 33.20 L 68.85 35.88 L 69.06 37.01 L 73.08 37.51 Z" fill="#2563eb"/>
</svg>