<svg xmlns="http://www.w3.org/2000/svg" viewBox="0 0 100 100" fill="none" stroke="#2563eb" stroke-width="0.3">
  <path d="M 10.24 11.81 L 56.78 12.12 L 58.56 14.31 L 57.20 15.15 L 56.99 19.01 L 59.81 21.41 L 60.23 27.04 L 57.93 31.43 L 53.44 34.14 L 52.30 38.42 L 50.42 38.00 L 50.10 44.99 L 47.81 45.20 L 49.17 48.96 L 47.81 50.31 L 83.81 50.31 L 81.93 56.57 L 85.06 60.75 L 85.79 63.88 L 88.09 65.86 L 82.45 68.47 L 82.03 70.35 L 86.63 71.60 L 88.61 68.57 L 92.57 71.60 L 92.26 74.00 L 89.97 75.04 L 85.69 74.10 L 86.21 75.88 L 84.75 78.59 L 88.40 80.99 L 94.24 81.72 L 96.33 84.54 L 98.00 84.96 L 94.97 88.19 L 91.63 87.57 L 88.82 84.23 L 81.83 82.45 L 81.83 79.22 L 78.38 80.26 L 78.59 82.97 L 77.03 85.48 L 74.52 85.90 L 72.64 83.08 L 68.26 82.97 L 66.70 85.90 L 63.77 86.73 L 60.64 84.96 L 58.14 84.75 L 55.74 80.05 L 51.46 77.97 L 49.79 78.28 L 48.12 74.31 L 43.11 74.83 L 43.01 72.43 L 38.10 74.73 L 38.73 76.50 L 34.97 78.17 L 29.13 77.34 L 17.55 73.58 L 7.22 74.52 L 5.86 75.25 L 4.19 73.37 L 8.68 66.59 L 7.22 62.94 L 8.57 60.96 L 7.95 58.35 L 9.83 56.37 L 11.81 51.46 L 11.50 47.39 L 6.28 39.67 L 6.17 35.50 L 2.00 31.32 L 2.00 11.81 L 10.24 11.81 Z" fill="#2563eb"/>
</svg>