<svg xmlns="http://www.w3.org/2000/svg" viewBox="0 0 100 100" fill="none" stroke="#2563eb" stroke-width="0.3">
  <path d="M 13.52 98.00 L 10.90 96.45 L 11.25 94.30 L 7.79 91.79 L 5.28 49.04 L 14.72 46.06 L 13.16 44.51 L 16.75 41.16 L 20.45 39.61 L 19.73 38.30 L 23.19 36.27 L 22.12 32.45 L 24.27 26.72 L 27.61 24.81 L 28.93 18.72 L 45.76 2.00 L 49.70 2.72 L 49.94 6.78 L 52.81 8.21 L 59.85 5.82 L 64.27 5.82 L 67.37 4.27 L 73.46 7.73 L 77.04 10.60 L 76.81 40.93 L 84.33 42.48 L 83.25 44.99 L 85.16 47.37 L 83.61 49.52 L 86.72 52.87 L 90.78 52.15 L 94.72 59.91 L 90.18 63.37 L 87.55 62.06 L 85.40 64.45 L 82.30 63.85 L 81.94 65.88 L 77.88 65.64 L 71.43 70.30 L 69.88 67.07 L 67.61 66.84 L 68.69 70.30 L 63.67 71.97 L 62.48 69.22 L 60.09 70.66 L 54.48 70.66 L 54.36 67.43 L 51.01 68.15 L 51.61 70.42 L 48.51 75.19 L 49.10 76.51 L 45.04 79.13 L 40.99 78.18 L 38.60 80.93 L 35.25 81.28 L 32.51 83.55 L 29.16 83.07 L 28.21 80.69 L 23.31 84.51 L 24.63 86.90 L 21.04 87.73 L 20.81 89.76 L 16.75 92.27 L 13.52 98.00 Z" fill="#2563eb"/>
</svg>