<svg xmlns="http://www.w3.org/2000/svg" viewBox="0 0 100 100" fill="none" stroke="#2563eb" stroke-width="0.3">
  <path d="M 2.24 30.41 L 82.02 30.41 L 84.03 57.64 L 98.00 57.87 L 93.74 66.99 L 79.89 69.59 L 80.01 66.04 L 78.23 64.62 L 80.72 63.08 L 77.40 59.53 L 76.34 61.07 L 71.84 60.71 L 70.30 56.81 L 71.72 56.81 L 71.84 51.72 L 73.26 49.70 L 71.37 42.84 L 73.73 38.81 L 77.40 38.10 L 78.00 33.96 L 75.27 34.43 L 75.15 36.56 L 69.47 39.29 L 67.82 41.77 L 67.46 48.05 L 65.33 51.01 L 66.28 55.98 L 69.12 59.41 L 68.76 62.01 L 70.54 64.62 L 69.59 66.39 L 64.62 62.96 L 57.52 61.30 L 55.39 57.99 L 51.36 59.88 L 49.82 57.28 L 53.02 53.97 L 54.91 50.53 L 57.75 48.28 L 55.03 46.15 L 53.26 47.45 L 50.41 45.44 L 45.92 44.38 L 45.92 41.18 L 43.55 39.41 L 40.23 39.05 L 37.75 33.01 L 34.08 33.01 L 30.41 31.00 L 28.40 32.66 L 24.85 32.54 L 24.02 34.91 L 17.63 33.37 L 13.36 36.56 L 10.52 35.85 L 6.26 39.52 L 2.00 41.54 L 2.24 30.41 Z" fill="#2563eb"/>
</svg>