<svg xmlns="http://www.w3.org/2000/svg" viewBox="0 0 100 100" fill="none" stroke="#2563eb" stroke-width="0.3">
  <path d="M 85.52 88.41 L 69.29 88.87 L 69.29 88.08 L 45.10 88.08 L 47.54 86.50 L 50.69 82.16 L 52.46 76.58 L 52.20 73.03 L 48.65 66.07 L 49.77 63.44 L 48.98 60.28 L 51.74 57.06 L 51.94 52.92 L 53.91 52.33 L 54.17 50.36 L 57.26 49.84 L 59.63 47.67 L 59.43 52.00 L 60.68 52.20 L 62.25 50.03 L 62.32 46.35 L 63.31 45.43 L 66.59 44.84 L 65.54 42.28 L 67.71 40.11 L 70.40 39.98 L 73.43 41.36 L 76.38 41.56 L 77.83 43.26 L 85.12 44.91 L 87.16 47.47 L 85.52 48.85 L 87.68 52.66 L 86.96 57.13 L 84.53 58.25 L 83.94 60.55 L 81.05 61.33 L 79.47 64.09 L 80.06 65.15 L 82.95 66.13 L 87.82 61.53 L 91.95 60.35 L 93.99 61.27 L 95.24 62.98 L 96.69 70.47 L 98.00 73.49 L 96.75 77.83 L 94.78 78.48 L 94.71 76.91 L 93.40 77.37 L 91.89 80.98 L 89.46 82.36 L 88.74 85.12 L 85.71 87.42 L 85.52 88.41 Z M 35.91 48.06 L 34.07 46.81 L 35.18 45.10 L 32.36 44.84 L 33.47 43.20 L 33.61 41.10 L 29.73 38.14 L 24.60 36.96 L 23.03 37.35 L 17.90 35.58 L 5.55 33.15 L 4.23 31.11 L 2.00 30.39 L 6.67 29.14 L 8.77 27.69 L 14.02 27.10 L 19.02 25.26 L 25.98 20.73 L 28.81 19.74 L 31.50 20.60 L 25.66 25.52 L 25.72 27.76 L 28.02 26.05 L 32.16 26.31 L 35.38 27.49 L 38.27 30.78 L 39.85 31.37 L 42.87 30.85 L 46.62 31.96 L 53.06 29.20 L 60.87 29.07 L 66.20 28.09 L 66.66 31.44 L 71.39 31.37 L 72.37 32.16 L 73.95 31.17 L 77.43 30.85 L 77.50 35.05 L 79.08 36.83 L 81.44 37.29 L 81.70 36.10 L 84.00 36.10 L 85.25 37.35 L 84.20 38.27 L 77.63 37.48 L 74.48 38.01 L 71.06 36.56 L 70.07 37.88 L 70.53 38.99 L 66.79 37.09 L 60.94 36.04 L 59.03 37.61 L 52.46 37.68 L 51.08 38.34 L 50.76 39.65 L 47.01 40.77 L 47.21 39.19 L 45.56 38.86 L 44.91 40.51 L 40.90 41.29 L 35.91 48.06 Z M 21.32 13.50 L 16.72 15.21 L 16.85 13.96 L 24.41 11.13 L 22.96 13.10 L 21.32 13.50 Z" fill="#2563eb"/>
</svg>