<svg xmlns="http://www.w3.org/2000/svg" viewBox="0 0 100 100" fill="none" stroke="#2563eb" stroke-width="0.3">
  <path d="M 67.75 46.68 L 66.78 46.13 L 64.23 47.17 L 64.23 54.63 L 59.88 56.42 L 56.98 59.12 L 56.77 60.91 L 58.22 61.05 L 59.81 62.64 L 58.36 64.57 L 57.74 71.34 L 61.05 73.62 L 63.67 73.83 L 64.99 75.21 L 68.85 76.59 L 69.48 78.25 L 75.07 80.87 L 77.49 83.63 L 77.14 85.64 L 77.83 87.09 L 11.81 87.09 L 11.81 64.43 L 8.91 62.98 L 6.70 60.57 L 10.15 57.87 L 9.94 51.38 L 8.42 50.07 L 7.39 47.31 L 6.70 35.29 L 3.24 28.59 L 2.83 23.48 L 3.66 21.75 L 2.00 17.75 L 28.18 17.75 L 28.18 12.91 L 30.66 13.05 L 32.32 14.02 L 33.98 20.58 L 35.29 21.34 L 44.75 22.44 L 45.30 23.82 L 49.45 23.48 L 49.45 22.93 L 52.69 22.24 L 55.53 22.51 L 58.77 23.55 L 59.67 24.86 L 61.53 24.72 L 63.26 27.55 L 64.09 26.38 L 67.27 25.83 L 67.82 27.00 L 71.55 27.83 L 71.55 28.94 L 73.41 29.83 L 77.21 29.35 L 82.60 27.35 L 83.70 29.21 L 91.37 28.94 L 94.75 30.52 L 98.00 30.25 L 93.51 32.53 L 83.84 35.08 L 66.78 45.65 L 67.75 46.68 Z" fill="#2563eb"/>
</svg>