<svg xmlns="http://www.w3.org/2000/svg" viewBox="0 0 100 100" fill="none" stroke="#2563eb" stroke-width="0.3">
  <path d="M 77.85 2.00 L 83.20 2.00 L 85.28 4.08 L 77.85 63.82 L 79.38 94.29 L 77.19 95.16 L 72.39 94.72 L 70.42 93.41 L 65.62 94.29 L 56.88 98.00 L 54.48 95.92 L 53.71 92.65 L 50.44 88.28 L 52.40 81.73 L 14.72 81.73 L 16.14 80.31 L 14.72 76.38 L 17.13 76.16 L 17.45 68.84 L 19.42 69.28 L 20.62 64.80 L 25.32 61.96 L 27.72 57.37 L 27.28 51.47 L 24.33 48.96 L 24.55 44.92 L 25.97 44.05 L 24.12 41.75 L 25.65 39.02 L 24.55 34.87 L 26.30 33.24 L 22.81 30.61 L 25.97 24.50 L 29.58 21.33 L 28.38 19.15 L 32.53 15.87 L 32.42 14.56 L 36.02 13.47 L 35.69 9.54 L 37.77 8.66 L 39.19 5.28 L 42.35 3.75 L 41.15 2.00 L 77.85 2.00 Z" fill="#2563eb"/>
</svg>