<svg xmlns="http://www.w3.org/2000/svg" viewBox="0 0 100 100" fill="none" stroke="#2563eb" stroke-width="0.3">
  <path d="M 58.92 16.67 L 60.42 16.59 L 63.36 19.52 L 64.94 20.00 L 63.67 22.06 L 63.83 24.99 L 65.66 29.43 L 74.93 36.25 L 75.88 41.00 L 76.99 41.87 L 78.66 40.53 L 83.89 42.19 L 80.40 49.01 L 80.32 51.31 L 86.19 56.14 L 87.77 55.83 L 92.45 58.92 L 92.45 61.14 L 93.64 63.91 L 92.45 64.86 L 95.70 68.99 L 98.00 69.14 L 96.81 75.01 L 94.67 74.38 L 93.88 76.20 L 92.13 76.20 L 92.21 79.77 L 89.36 83.41 L 80.00 83.41 L 84.52 78.97 L 83.26 76.20 L 18.65 76.12 L 18.73 37.67 L 15.64 36.96 L 11.51 32.12 L 14.76 27.92 L 10.09 26.81 L 5.09 21.66 L 2.00 16.98 L 58.92 16.67 Z" fill="#2563eb"/>
</svg>