<svg xmlns="http://www.w3.org/2000/svg" viewBox="0 0 100 100" fill="none" stroke="#2563eb" stroke-width="0.3">
  <path d="M 82.42 22.04 L 81.87 26.98 L 83.04 29.24 L 81.26 34.18 L 82.35 37.61 L 81.67 38.64 L 83.66 40.70 L 83.38 50.45 L 80.36 58.68 L 79.82 68.63 L 80.71 69.66 L 77.62 71.03 L 78.51 72.47 L 83.86 73.50 L 84.96 72.75 L 91.89 72.34 L 95.74 70.35 L 96.01 71.79 L 98.00 72.40 L 83.73 77.00 L 75.01 78.03 L 73.91 75.97 L 75.42 72.34 L 65.47 67.81 L 64.92 66.91 L 63.00 66.85 L 60.74 64.72 L 61.01 62.87 L 57.17 59.78 L 2.00 59.78 L 2.00 56.42 L 9.69 52.85 L 10.92 51.13 L 13.39 49.97 L 12.43 47.84 L 11.40 47.43 L 10.65 44.00 L 17.99 42.55 L 27.12 42.97 L 29.93 44.34 L 40.43 42.97 L 43.93 40.70 L 46.19 40.63 L 46.26 37.20 L 47.43 35.21 L 44.61 33.84 L 45.23 32.26 L 50.24 30.13 L 58.13 24.10 L 63.83 21.97 L 82.42 22.04 Z" fill="#2563eb"/>
</svg>