<svg xmlns="http://www.w3.org/2000/svg" viewBox="0 0 100 100" fill="none" stroke="#2563eb" stroke-width="0.3">
  <path d="M 70.11 10.89 L 83.67 16.67 L 78.78 28.44 L 72.11 31.11 L 68.56 37.33 L 79.67 40.44 L 80.56 45.11 L 75.67 66.89 L 63.00 83.11 L 54.78 87.78 L 47.44 98.00 L 43.67 91.33 L 31.89 88.00 L 17.44 79.11 L 16.33 72.22 L 22.33 65.11 L 33.22 61.78 L 33.89 58.67 L 46.33 52.00 L 48.33 48.44 L 36.78 40.22 L 36.33 35.11 L 31.22 33.78 L 30.78 29.11 L 37.00 22.00 L 33.67 17.78 L 43.89 9.33 L 46.11 4.89 L 51.44 2.00 L 70.11 10.89 Z" fill="#2563eb"/>
</svg>