<svg xmlns="http://www.w3.org/2000/svg" viewBox="0 0 100 100" fill="none" stroke="#2563eb" stroke-width="0.3">
  <path d="M 39.28 35.00 L 96.29 35.12 L 97.57 39.58 L 94.46 39.15 L 87.18 41.17 L 87.31 41.96 L 94.15 41.35 L 95.25 42.39 L 97.27 41.96 L 98.00 44.65 L 97.33 45.94 L 95.98 46.06 L 93.17 48.81 L 89.44 48.93 L 88.83 50.82 L 90.42 52.72 L 91.71 53.09 L 89.32 56.20 L 87.31 55.84 L 81.32 56.81 L 77.47 58.95 L 74.41 61.76 L 72.82 65.31 L 70.50 64.51 L 66.47 65.25 L 53.82 54.61 L 41.29 54.43 L 41.48 53.15 L 39.76 51.25 L 38.60 51.92 L 38.54 50.76 L 24.79 50.21 L 15.50 52.41 L 2.00 52.54 L 2.31 49.91 L 4.51 49.66 L 5.36 47.83 L 8.11 46.18 L 11.17 46.12 L 13.92 44.41 L 16.79 43.80 L 20.76 40.56 L 21.07 41.66 L 25.47 39.52 L 27.48 39.95 L 28.89 37.87 L 30.96 37.32 L 31.45 34.69 L 39.28 35.00 Z" fill="#2563eb"/>
</svg>