<svg xmlns="http://www.w3.org/2000/svg" viewBox="0 0 100 100" fill="none" stroke="#2563eb" stroke-width="0.3">
  <path d="M 98.00 10.32 L 98.00 40.28 L 94.70 41.50 L 96.29 43.95 L 96.17 47.37 L 93.11 52.75 L 91.03 60.95 L 82.35 68.16 L 79.53 69.14 L 77.09 67.67 L 74.52 70.85 L 71.95 70.73 L 69.14 75.01 L 69.75 77.58 L 67.43 79.66 L 64.12 76.23 L 59.97 81.61 L 61.07 85.04 L 58.38 86.26 L 57.52 89.19 L 51.65 89.68 L 48.59 86.63 L 46.03 86.02 L 45.05 82.22 L 41.87 82.96 L 39.42 85.16 L 30.98 83.45 L 27.44 85.04 L 22.42 81.98 L 15.45 81.12 L 15.09 79.17 L 10.56 74.52 L 2.00 74.52 L 2.24 16.68 L 32.45 15.82 L 41.13 18.88 L 44.07 20.71 L 46.27 19.00 L 51.16 22.55 L 54.22 23.65 L 64.61 20.71 L 70.73 21.32 L 77.33 17.16 L 86.99 13.13 L 98.00 10.32 Z" fill="#2563eb"/>
</svg>