<svg xmlns="http://www.w3.org/2000/svg" viewBox="0 0 100 100" fill="none" stroke="#2563eb" stroke-width="0.3">
  <path d="M 34.63 31.17 L 95.91 31.17 L 95.91 36.75 L 98.00 49.14 L 97.39 68.83 L 93.09 67.61 L 91.99 66.32 L 89.11 65.21 L 88.37 66.19 L 84.87 65.52 L 82.24 66.62 L 81.13 66.01 L 78.74 66.56 L 76.53 68.28 L 73.34 66.50 L 70.89 66.50 L 70.09 65.21 L 67.27 67.73 L 66.35 66.32 L 65.06 66.75 L 61.44 64.97 L 59.48 66.44 L 58.62 64.91 L 57.02 64.72 L 56.10 63.50 L 53.96 63.00 L 52.55 64.05 L 51.63 63.13 L 44.69 62.39 L 43.90 60.24 L 38.99 60.49 L 36.47 58.34 L 35.62 58.47 L 35.62 36.75 L 2.00 36.75 L 2.00 31.17 L 34.63 31.17 Z" fill="#2563eb"/>
</svg>