<svg xmlns="http://www.w3.org/2000/svg" viewBox="0 0 100 100" fill="none" stroke="#2563eb" stroke-width="0.3">
  <path d="M 17.92 25.76 L 21.56 26.86 L 22.67 28.29 L 23.25 31.87 L 29.36 33.17 L 34.56 31.28 L 37.81 31.09 L 41.58 31.74 L 41.97 32.52 L 48.47 30.83 L 50.03 31.41 L 53.54 31.09 L 56.47 29.92 L 68.04 27.84 L 92.61 27.90 L 94.23 29.92 L 97.03 30.76 L 98.00 32.39 L 93.45 39.41 L 93.65 40.51 L 92.41 42.27 L 91.18 42.66 L 88.77 46.88 L 89.62 48.51 L 91.89 48.70 L 92.87 49.68 L 91.31 53.57 L 91.31 75.28 L 6.03 75.28 L 4.34 73.92 L 3.62 67.42 L 2.00 65.34 L 6.55 53.83 L 7.65 42.40 L 8.82 37.98 L 9.28 31.87 L 8.63 28.49 L 9.21 26.47 L 13.96 24.72 L 16.04 26.08 L 17.92 25.76 Z" fill="#2563eb"/>
</svg>