<svg xmlns="http://www.w3.org/2000/svg" viewBox="0 0 100 100" fill="none" stroke="#2563eb" stroke-width="0.3">
  <path d="M 13.51 20.96 L 17.78 19.10 L 23.26 18.33 L 47.92 19.32 L 48.03 21.40 L 50.11 20.19 L 53.18 23.59 L 52.85 25.89 L 75.32 26.22 L 98.00 45.29 L 94.49 46.27 L 90.11 49.56 L 85.84 54.71 L 85.07 58.88 L 81.67 62.16 L 77.18 62.16 L 76.19 64.58 L 71.48 67.21 L 68.85 70.05 L 64.68 71.26 L 60.19 74.33 L 59.75 75.75 L 55.59 77.40 L 51.10 81.67 L 46.49 79.92 L 46.38 76.52 L 43.21 71.15 L 40.47 69.73 L 40.25 65.45 L 38.93 62.16 L 33.56 59.10 L 30.05 55.37 L 30.27 53.07 L 24.90 49.67 L 22.27 45.95 L 17.67 43.42 L 10.77 32.58 L 8.68 32.90 L 2.00 28.63 L 2.33 26.55 L 6.60 22.27 L 13.51 20.96 Z" fill="#2563eb"/>
</svg>