<svg xmlns="http://www.w3.org/2000/svg" viewBox="0 0 100 100" fill="none" stroke="#2563eb" stroke-width="0.3">
  <path d="M 37.35 11.16 L 50.62 11.16 L 50.62 25.35 L 52.83 26.67 L 56.03 26.51 L 56.55 27.91 L 61.68 29.00 L 62.61 28.31 L 64.01 28.64 L 66.21 30.56 L 67.50 29.60 L 70.70 30.48 L 71.30 31.40 L 73.15 29.76 L 73.67 30.60 L 77.36 31.76 L 78.80 30.64 L 82.81 29.96 L 85.09 30.40 L 85.57 29.76 L 91.75 32.80 L 94.23 32.76 L 94.23 44.15 L 95.84 45.75 L 98.00 51.88 L 96.52 54.53 L 96.80 57.70 L 95.07 60.30 L 95.72 61.02 L 90.70 62.07 L 89.34 61.50 L 89.10 60.30 L 87.46 60.94 L 87.10 61.98 L 87.98 63.79 L 84.41 67.04 L 80.00 68.96 L 76.39 69.00 L 75.03 68.28 L 76.96 70.16 L 74.23 70.40 L 74.03 71.73 L 72.39 73.09 L 68.62 79.02 L 69.46 78.78 L 68.46 81.87 L 70.98 88.08 L 68.74 88.84 L 67.82 87.88 L 63.81 87.60 L 56.67 84.07 L 54.67 80.54 L 54.43 77.18 L 48.46 71.32 L 45.69 65.31 L 40.28 60.54 L 33.51 59.70 L 33.14 60.46 L 31.38 60.70 L 27.81 66.15 L 26.61 66.19 L 17.63 61.38 L 14.79 54.57 L 5.21 48.00 L 2.00 44.83 L 2.20 44.11 L 28.17 44.11 L 28.37 11.16 L 37.35 11.16 Z" fill="#2563eb"/>
</svg>