<svg xmlns="http://www.w3.org/2000/svg" viewBox="0 0 100 100" fill="none" stroke="#2563eb" stroke-width="0.3">
  <path d="M 96.25 49.94 L 98.00 49.75 L 94.94 52.37 L 91.64 59.23 L 89.70 60.11 L 89.08 58.55 L 90.08 55.05 L 93.13 50.62 L 96.25 49.94 Z M 62.63 33.41 L 68.56 37.21 L 69.81 35.03 L 71.55 35.22 L 72.80 36.15 L 72.80 37.84 L 76.67 39.46 L 77.54 41.08 L 74.30 45.01 L 74.80 46.19 L 77.85 45.82 L 78.41 47.63 L 82.41 48.38 L 83.53 49.81 L 86.71 51.37 L 85.27 54.55 L 86.58 57.05 L 85.03 58.23 L 84.84 59.67 L 86.27 60.54 L 84.71 61.91 L 82.34 60.11 L 81.78 60.73 L 83.84 62.04 L 89.45 62.35 L 90.89 66.59 L 2.00 66.03 L 8.11 64.41 L 8.86 63.16 L 11.04 62.73 L 12.85 60.11 L 17.03 58.42 L 21.40 55.36 L 21.21 56.30 L 22.77 58.23 L 24.71 59.17 L 26.14 59.11 L 28.32 57.61 L 29.88 58.80 L 32.81 58.17 L 40.42 55.68 L 40.49 53.62 L 46.97 45.95 L 47.85 43.33 L 51.65 45.38 L 55.27 40.39 L 56.71 41.39 L 62.01 36.78 L 62.63 33.41 Z" fill="#2563eb"/>
</svg>