<svg xmlns="http://www.w3.org/2000/svg" viewBox="0 0 100 100" fill="none" stroke="#2563eb" stroke-width="0.3">
  <path d="M 96.58 28.73 L 96.31 61.48 L 97.93 63.64 L 98.00 65.80 L 72.48 65.73 L 60.46 67.89 L 57.43 69.11 L 53.78 69.44 L 52.16 68.84 L 45.41 70.59 L 45.00 69.78 L 41.09 69.11 L 37.71 69.31 L 32.31 71.27 L 25.97 69.92 L 25.36 66.20 L 24.21 64.72 L 21.58 63.43 L 18.47 63.91 L 16.31 62.49 L 14.08 62.02 L 12.26 62.76 L 9.90 61.68 L 10.37 59.99 L 11.99 59.11 L 9.49 56.55 L 5.44 44.26 L 3.01 42.44 L 2.00 38.79 L 3.35 36.36 L 10.91 39.06 L 17.80 39.60 L 21.04 39.00 L 22.59 40.08 L 25.49 40.01 L 27.52 42.71 L 29.00 42.51 L 30.15 49.46 L 31.37 49.12 L 30.15 46.29 L 30.49 43.52 L 32.51 40.68 L 30.89 39.54 L 29.34 31.77 L 27.38 31.50 L 25.56 30.08 L 26.03 28.73 L 96.58 28.73 Z M 22.73 33.86 L 24.08 32.24 L 25.90 34.20 L 25.36 35.89 L 22.52 35.42 L 22.73 33.86 Z" fill="#2563eb"/>
</svg>