<svg xmlns="http://www.w3.org/2000/svg" viewBox="0 0 100 100" fill="none" stroke="#2563eb" stroke-width="0.3">
  <path d="M 43.19 16.37 L 43.19 34.29 L 63.57 34.29 L 63.35 44.37 L 67.22 42.55 L 71.08 39.22 L 73.65 39.86 L 77.51 36.97 L 83.31 38.36 L 84.06 36.22 L 87.27 36.32 L 89.10 34.82 L 92.42 36.65 L 95.75 36.65 L 98.00 42.12 L 95.85 45.87 L 85.66 39.33 L 84.59 45.12 L 75.47 53.06 L 73.01 51.34 L 68.82 58.31 L 66.79 59.92 L 63.57 59.06 L 60.24 56.38 L 58.74 60.89 L 54.88 64.53 L 53.38 68.07 L 49.73 70.97 L 47.59 74.08 L 47.48 77.62 L 44.05 79.34 L 43.30 78.16 L 34.39 81.91 L 29.35 82.98 L 26.67 80.95 L 22.92 83.52 L 20.45 83.63 L 17.12 82.02 L 14.44 78.69 L 14.76 77.08 L 12.19 76.76 L 8.44 74.51 L 7.47 72.26 L 4.36 69.36 L 2.00 65.61 L 2.54 59.71 L 7.68 59.28 L 8.44 56.70 L 10.80 55.63 L 9.83 52.63 L 13.48 47.91 L 16.37 50.91 L 18.41 49.09 L 17.87 46.84 L 20.34 43.08 L 22.59 43.19 L 24.85 40.40 L 26.99 41.69 L 29.46 40.83 L 37.07 34.50 L 38.90 27.31 L 41.58 22.59 L 41.69 19.59 L 40.29 17.45 L 43.19 16.37 Z" fill="#2563eb"/>
</svg>