<svg xmlns="http://www.w3.org/2000/svg" viewBox="0 0 100 100" fill="none" stroke="#2563eb" stroke-width="0.3">
  <path d="M 42.50 19.78 L 45.55 20.77 L 47.35 23.55 L 64.23 26.88 L 71.24 29.30 L 73.39 28.76 L 80.40 30.38 L 85.70 34.42 L 85.52 37.29 L 83.99 39.54 L 87.85 39.90 L 86.33 42.23 L 88.84 43.94 L 88.21 45.91 L 85.07 46.27 L 81.39 52.65 L 83.27 53.10 L 88.48 48.16 L 91.89 46.90 L 94.59 42.77 L 98.00 41.87 L 97.73 44.03 L 95.40 46.00 L 90.82 52.83 L 89.56 56.60 L 89.65 59.29 L 87.94 60.19 L 86.42 63.87 L 86.95 67.02 L 83.54 74.20 L 83.99 78.24 L 85.97 81.84 L 85.34 86.59 L 38.82 86.33 L 37.65 84.26 L 31.81 82.37 L 30.02 76.09 L 31.99 74.11 L 29.57 72.50 L 28.49 68.19 L 28.94 65.58 L 25.80 61.99 L 23.19 61.36 L 18.52 58.58 L 17.72 56.42 L 12.69 54.62 L 10.98 52.83 L 7.57 52.56 L 3.26 49.60 L 4.42 43.58 L 4.07 40.80 L 5.95 38.28 L 3.89 36.22 L 2.00 36.04 L 2.27 33.70 L 6.04 30.20 L 10.71 28.85 L 11.70 27.86 L 11.70 18.16 L 15.02 16.82 L 19.96 17.72 L 35.59 13.41 L 37.02 14.57 L 34.78 16.73 L 40.17 19.51 L 42.50 19.78 Z" fill="#2563eb"/>
</svg>